<?xml version="1.0" encoding="UTF-8" standalone="no"?>
<svg
   viewBox="0 0 448 512"
   version="1.1"
   id="svg914"
   sodipodi:docname="google-scholar.svg"
   inkscape:version="1.1 (c4e8f9e, 2021-05-24)"
   xmlns:inkscape="http://www.inkscape.org/namespaces/inkscape"
   xmlns:sodipodi="http://sodipodi.sourceforge.net/DTD/sodipodi-0.dtd"
   xmlns="http://www.w3.org/2000/svg"
   xmlns:svg="http://www.w3.org/2000/svg">
  <defs
     id="defs918" />
  <sodipodi:namedview
     id="namedview916"
     pagecolor="#ffffff"
     bordercolor="#666666"
     borderopacity="1.0"
     inkscape:pageshadow="2"
     inkscape:pageopacity="0.0"
     inkscape:pagecheckerboard="0"
     showgrid="false"
     inkscape:zoom="0.6218591"
     inkscape:cx="372.27082"
     inkscape:cy="471.97187"
     inkscape:window-width="1296"
     inkscape:window-height="847"
     inkscape:window-x="262"
     inkscape:window-y="27"
     inkscape:window-maximized="0"
     inkscape:current-layer="svg914" />
  <!--! Font Awesome Pro 6.2.0 by @fontawesome - https://fontawesome.com License - https://fontawesome.com/license (Commercial License) Copyright 2022 Fonticons, Inc. -->
  <path
     d="m 229.09106,157.23677 c -6.99608,-7.81175 -15.10218,-11.70066 -24.26816,-11.70066 -10.3738,0 -18.33551,3.73337 -23.88466,11.1839 -5.54914,7.42772 -8.32498,16.42702 -8.32498,26.99942 0,9.00487 1.51939,18.17238 4.5597,27.52024 3.02915,9.34382 7.98552,17.685 14.93398,25.03723 6.92414,7.37049 14.98212,11.04863 24.13695,11.04863 10.2056,0 18.17795,-3.42026 23.89579,-10.25727 5.69354,-6.82787 8.55095,-15.4472 8.55095,-25.82859 0,-8.84174 -1.50825,-18.10043 -4.53589,-27.77963 -3.01293,-9.69238 -8.04328,-18.43736 -15.06368,-26.22327 z M 422.14261,60.372813 C 405.83972,44.053197 386.20721,35.910101 363.22842,35.910101 H 85.304895 c -22.978793,0 -42.592538,8.143096 -58.914185,24.462712 C 10.071086,76.657486 1.92799,96.308217 1.92799,119.28701 v 277.92352 c 0,22.97879 8.143096,42.63003 24.46272,58.94966 16.321647,16.24921 35.970854,24.42776 58.914185,24.42776 H 363.22842 c 22.97879,0 42.6113,-8.17855 58.91419,-24.46272 16.32166,-16.32166 24.48146,-35.9354 24.48146,-58.91419 V 119.28752 c 0,-22.978795 -8.16184,-42.630034 -24.48146,-58.914198 z m -91.4592,90.791977 v 99.33176 c 0,4.59869 -3.76326,8.36347 -8.36348,8.36347 h -3.07932 c -4.60071,0 -8.36347,-3.76325 -8.36347,-8.36347 v -99.33176 c 0,-4.08345 -0.59276,-7.49259 5.11394,-8.20997 v -13.216 l -43.93256,36.03165 c 0.50763,0.94133 0.98944,1.54321 1.44693,2.33254 3.86103,6.83345 5.82728,15.3322 5.82728,25.71916 0,7.96173 -1.32687,15.11333 -4.01708,21.43003 -2.67756,6.31466 -5.93469,11.47267 -9.73493,15.44517 -3.80025,3.98719 -7.61164,7.6319 -11.42252,10.91133 -3.81139,3.28703 -7.06853,6.71439 -9.73646,10.27196 -2.6887,3.54643 -4.0262,7.21292 -4.0262,11.01316 0,3.80583 1.73623,7.67244 5.19905,11.56895 3.45017,3.90765 7.69473,7.69471 12.71394,11.43568 5.02832,3.71514 10.04599,7.83912 15.0652,12.32686 5.03034,4.48217 9.25109,10.24815 12.70126,17.24981 3.476,7.02799 5.21019,14.76527 5.21019,23.2696 0,11.21886 -2.86094,21.34996 -8.56359,30.36802 -5.71988,8.97903 -13.17193,16.14382 -22.32828,21.39808 -9.18067,5.28976 -18.99869,9.27137 -29.46925,11.96008 -10.49235,2.66437 -20.90362,4.0039 -31.30175,4.0039 -6.5629,0 -13.18458,-0.50562 -19.84374,-1.54522 -6.68298,-1.03759 -13.37762,-2.87007 -20.11988,-5.45289 -6.75542,-2.59951 -12.73824,-5.7918 -17.92413,-9.62549 -5.19905,-3.79467 -9.38435,-8.69177 -12.59385,-14.65585 -3.209,-5.96609 -4.80236,-12.67137 -4.80236,-20.11986 0,-8.83617 2.46071,-17.03296 7.39479,-24.67399 4.93409,-7.58529 11.47066,-13.92021 19.60108,-18.9379 14.18519,-8.82502 36.44152,-14.2779 66.73152,-16.33837 -6.92414,-8.6563 -10.39811,-16.80345 -10.39811,-24.42776 0,-4.33727 1.13384,-8.98613 3.37771,-14.00533 -3.61836,0.50561 -7.34463,0.79136 -11.14641,0.79136 -16.27148,0 -30.01185,-5.28974 -41.16991,-15.94167 -11.15755,-10.63318 -16.73101,-23.94392 -16.73101,-40.03608 0,-1.68253 0.0482,-3.16443 0.17023,-4.80642 H 76.041131 l 99.709699,-86.6771 h 165.1255 l -15.25975,11.91193 v 21.02421 c 5.66618,0.72803 5.06734,4.13361 5.06734,8.20591 z M 230.00857,305.49244 c -1.90493,-0.34451 -4.58197,-0.53754 -8.03214,-0.53754 -7.44293,0 -14.76527,0.65761 -21.95387,1.97131 -7.18911,1.27823 -14.28145,3.43698 -21.27803,6.48286 -7.02243,3.02763 -12.69012,7.47991 -17.00915,13.36646 -4.34285,5.87896 -6.50161,12.8031 -6.50161,20.77039 0,7.5929 1.90492,14.36656 5.71785,20.26628 3.80024,5.86225 8.81741,10.45182 15.05405,13.73885 6.23664,3.2926 12.77524,5.77914 19.60108,7.41304 6.83902,1.62325 13.79964,2.46628 20.89249,2.46628 14.02761,0 26.1042,-3.15885 36.23583,-9.47553 10.10882,-6.31466 15.17463,-16.0658 15.17463,-29.2281 0,-2.76824 -0.38554,-5.49341 -1.14701,-8.15424 -0.79491,-2.69022 -1.5807,-4.99336 -2.35129,-6.90539 -0.7726,-1.87707 -2.24386,-4.13716 -4.41529,-6.74226 -2.15876,-2.6127 -3.81139,-4.54296 -4.92294,-5.82728 -1.13384,-1.32687 -3.25561,-3.22015 -6.38103,-5.72342 -3.09957,-2.51441 -5.07847,-4.08193 -5.95849,-4.66151 -0.86889,-0.60948 -3.1239,-2.25654 -6.75544,-4.92851 -3.62951,-2.69378 -5.61956,-4.12247 -5.96964,-4.29118 z"
     fill="#333333"
     id="path824"
     style="fill:#000000;stroke-width:0.253316" />
</svg>
